<?xml version="1.0" encoding="UTF-8" standalone="no"?>
<svg
   aria-hidden="true"
   focusable="false"
   role="presentation"
   class="icon icon-error"
   viewBox="0 0 13 13"
   version="1.1"
   id="svg3"
   sodipodi:docname="warning2.svg"
   inkscape:version="1.3 (1:1.3+202307231459+0e150ed6c4)"
   xmlns:inkscape="http://www.inkscape.org/namespaces/inkscape"
   xmlns:sodipodi="http://sodipodi.sourceforge.net/DTD/sodipodi-0.dtd"
   xmlns="http://www.w3.org/2000/svg"
   xmlns:svg="http://www.w3.org/2000/svg">
  <defs
     id="defs3" />
  <sodipodi:namedview
     id="namedview3"
     pagecolor="#ffffff"
     bordercolor="#666666"
     borderopacity="1.0"
     inkscape:showpageshadow="2"
     inkscape:pageopacity="0.0"
     inkscape:pagecheckerboard="0"
     inkscape:deskcolor="#d1d1d1"
     inkscape:zoom="30.024842"
     inkscape:cx="-0.93256111"
     inkscape:cy="9.8418503"
     inkscape:window-width="1860"
     inkscape:window-height="1009"
     inkscape:window-x="60"
     inkscape:window-y="34"
     inkscape:window-maximized="1"
     inkscape:current-layer="svg3" />
  <circle
     cx="6.5"
     cy="6.50049"
     r="5.5"
     stroke="white"
     stroke-width="2"
     id="circle1" />
  <circle
     cx="6.5"
     cy="6.5"
     r="5.5"
     fill="#EB001B"
     stroke="#EB001B"
     stroke-width="0.7"
     id="circle2" />
  <path
     d="M5.87413 3.52832L5.97439 7.57216H7.02713L7.12739 3.52832H5.87413ZM6.50076 9.66091C6.88091 9.66091 7.18169 9.37267 7.18169 9.00504C7.18169 8.63742 6.88091 8.34917 6.50076 8.34917C6.12061 8.34917 5.81982 8.63742 5.81982 9.00504C5.81982 9.37267 6.12061 9.66091 6.50076 9.66091Z"
     fill="white"
     id="path2" />
  <path
     d="M 5.5901332,1.5395468 H 5.0691847 l 0.012908,0.5208034 0.1455775,5.8716411 0.012284,0.4956112 H 5.7357108 7.2642892 7.7600456 L 7.7723295,7.9319913 7.917907,2.0603502 7.9308153,1.5395468 H 7.4098668 Z M 6.5,11.460453 c 0.8137734,0 1.4969249,-0.627526 1.4969249,-1.4605088 0,-0.8329688 -0.6831515,-1.4605087 -1.4969249,-1.4605087 -0.8137734,0 -1.4969249,0.6275399 -1.4969249,1.4605087 0,0.8329828 0.6831515,1.4605088 1.4969249,1.4605088 z"
     fill="#ffffff"
     stroke="#eb001b"
     stroke-width="0.847"
     id="path3"
     style="fill:#ffffff;fill-opacity:1" />
</svg>
