<?xml version="1.0" encoding="utf-8"?>
<svg version="1.1" id="Layer_1" xmlns="http://www.w3.org/2000/svg" xmlns:xlink="http://www.w3.org/1999/xlink" x="0px" y="0px"
	 viewBox="0 0 512 512" style="enable-background:new 0 0 512 512;" xml:space="preserve">
<style type="text/css">
	.st0{fill-rule:evenodd;clip-rule:evenodd;}
</style>
<g>
	<path class="st0" d="M448,64H64c-17.7,0-32,14.3-32,32v320c0,17.7,14.3,32,32,32h384c17.7,0,32-14.3,32-32V96
		C480,78.3,465.7,64,448,64z M64,32C28.6,32,0,60.6,0,96v320c0,35.4,28.6,64,64,64h384c35.4,0,64-28.6,64-64V96
		c0-35.4-28.6-64-64-64H64z"/>
	<rect x="32" y="160" class="st0" width="448" height="32"/>
	<path d="M96,112c0,8.8-7.2,16-16,16s-16-7.2-16-16s7.2-16,16-16S96,103.2,96,112z M144,112c0,8.8-7.2,16-16,16s-16-7.2-16-16
		s7.2-16,16-16S144,103.2,144,112z M192,112c0,8.8-7.2,16-16,16s-16-7.2-16-16s7.2-16,16-16S192,103.2,192,112z"/>
</g>
</svg>
